<svg width="14" height="15" fill="none" xmlns="http://www.w3.org/2000/svg"><path fill-rule="evenodd" clip-rule="evenodd" d="M7.522 2.28a2 2 0 00-1.046 0c-.356.097-.702.35-1.687 1.117L3.055 4.745c-.634.493-.847.666-.997.87a2 2 0 00-.318.65c-.069.244-.075.518-.075 1.321V12c0 .513.008.622.03.693.064.213.23.38.444.445.07.021.18.028.693.028h.533a.667.667 0 00.633-.634V10.5a3 3 0 016 0v1.916c0 .086.001.104.002.116.017.343.29.617.633.633l.116.001h.416c.514 0 .623-.007.694-.028a.667.667 0 00.444-.445c.022-.07.03-.18.03-.693V7.586c0-.803-.007-1.077-.075-1.321a1.998 1.998 0 00-.318-.65c-.15-.204-.363-.377-.998-.87L9.21 3.397c-.986-.767-1.331-1.02-1.687-1.116zM6.128.995a3.333 3.333 0 011.742 0c.649.175 1.218.619 2.044 1.262l.114.088 1.733 1.348.07.055c.537.417.908.705 1.181 1.075.241.326.42.693.53 1.083.124.443.124.912.123 1.592v4.587c.001.38.001.71-.086.996a2 2 0 01-1.333 1.334c-.287.087-.616.086-.997.086h-.514c-.064 0-.118 0-.168-.003a2 2 0 01-1.9-1.9c-.002-.049-.002-.103-.002-.167V10.5a1.667 1.667 0 00-3.333 0v1.93c0 .064 0 .118-.002.168a2 2 0 01-1.9 1.9c-.05.002-.104.002-.167.002h-.515c-.38 0-.71 0-.996-.086A2 2 0 01.418 13.08c-.087-.287-.086-.616-.086-.996V7.496c0-.679 0-1.148.124-1.59.109-.391.288-.758.53-1.084.273-.37.644-.658 1.18-1.075l.07-.055L3.97 2.344l.113-.088C4.91 1.613 5.48 1.169 6.128.994z" fill="#fff"/></svg>