<svg width="48" height="48" fill="none" xmlns="http://www.w3.org/2000/svg"><g clip-path="url(#clip0_347_1076)" fill="#7772F1"><path d="M16.64 31.014a.943.943 0 00-1.326 0 .948.948 0 00-.275.663.941.941 0 001.6.663.943.943 0 00.275-.663c0-.246-.1-.488-.275-.663z"/><path d="M48 31.866c0-1.893-1.33-3.48-3.105-3.88a3.95 3.95 0 00.665-2.199 3.981 3.981 0 00-3.976-3.977H31.15l1.365-4.051c.55-1.635.42-3.38-.37-4.915a6.276 6.276 0 00-3.785-3.157l-1.645-.5a.937.937 0 00-1.154.578l-2.585 7.143a8.807 8.807 0 01-4.073 4.743l-2.582 1.406a3.045 3.045 0 00-2.457-1.246H.937a.938.938 0 00-.937.937v24.314c0 .518.42.938.938.938h12.927a3.05 3.05 0 002.632-1.514l1.324.519c1.683.66 3.454.995 5.262.995h16.381a3.981 3.981 0 003.977-3.977c0-.82-.25-1.581-.675-2.215a3.983 3.983 0 003.038-3.864c0-.835-.26-1.61-.702-2.251A3.983 3.983 0 0048 31.866zm-3.977 2.102h-9.642a.938.938 0 000 1.875h7.446c1.159 0 2.102.943 2.102 2.101a2.104 2.104 0 01-2.102 2.102H34.38a.938.938 0 000 1.875h5.085c1.16 0 2.102.943 2.102 2.102a2.104 2.104 0 01-2.102 2.102H23.083c-1.573 0-3.113-.291-4.578-.866l-1.592-.624v-9.198a.938.938 0 00-1.875 0v9.515c0 .646-.526 1.173-1.173 1.173H1.875v-22.44h11.99c.647 0 1.173.527 1.173 1.174v3.183a.938.938 0 001.875 0V24.87l2.888-1.572a10.68 10.68 0 004.94-5.752l2.282-6.306.793.241a4.415 4.415 0 012.662 2.221 4.415 4.415 0 01.261 3.458l-1.781 5.288a.937.937 0 00.888 1.237h11.738c1.159 0 2.101.943 2.101 2.102a2.104 2.104 0 01-2.101 2.102H34.38a.938.938 0 000 1.875h9.642c1.16 0 2.102.943 2.102 2.102a2.104 2.104 0 01-2.102 2.102z"/><path d="M10.235 38.958a2.629 2.629 0 00-2.626 2.626 2.629 2.629 0 002.626 2.626 2.629 2.629 0 002.626-2.626 2.629 2.629 0 00-2.626-2.626zm0 3.377a.752.752 0 010-1.502.752.752 0 010 1.502zM28.674.275A.944.944 0 0028.012 0c-.247 0-.489.1-.663.275a.945.945 0 00-.275.662c0 .247.1.489.275.663a.944.944 0 00.663.275.94.94 0 00.662-.275.944.944 0 00.275-.663.94.94 0 00-.275-.662zM28.012 3.5a.938.938 0 00-.938.938v2.28a.938.938 0 001.875 0v-2.28a.938.938 0 00-.937-.938zm12.306 8.805h-5.78a.937.937 0 100 1.875h5.78a.938.938 0 000-1.875zm-18.828 0h-5.78a.938.938 0 000 1.875h5.781a.938.938 0 000-1.875zm1.885-5.028l-2.73-2.73a.938.938 0 00-1.325 1.327l2.73 2.73a.935.935 0 001.325 0 .938.938 0 000-1.327zM36.707 4.55a.938.938 0 00-1.326 0l-2.73 2.73a.938.938 0 001.326 1.325l2.73-2.73a.938.938 0 000-1.325z"/></g><defs><clipPath id="clip0_347_1076"><path fill="#fff" d="M0 0h48v48H0z"/></clipPath></defs></svg>