<svg width="48" height="48" fill="none" xmlns="http://www.w3.org/2000/svg"><g clip-path="url(#clip0_347_500)" fill="#7772F1"><path d="M28.553 12.378h-.386A5.557 5.557 0 0029.58 8.67V5.58A5.588 5.588 0 0024 0a5.588 5.588 0 00-5.582 5.581v3.091c0 1.42.535 2.72 1.413 3.706h-.386a6.945 6.945 0 00-6.937 6.937V24c0 .518.42.938.937.938h21.108c.518 0 .938-.42.938-.938v-4.685a6.945 6.945 0 00-6.938-6.937zM24 1.875a3.712 3.712 0 013.667 3.163l-1.654-.972a.938.938 0 00-1.194.206 4.154 4.154 0 01-3.192 1.49h-1.333v-.18A3.71 3.71 0 0124 1.874zm-3.706 5.762h1.333a6.023 6.023 0 004.073-1.58l2.006 1.179v1.436A3.71 3.71 0 0124 12.378a3.71 3.71 0 01-3.706-3.706V7.637zm13.323 15.425H14.383v-3.747a5.068 5.068 0 015.062-5.062h3.617v1.872a.938.938 0 001.875 0v-1.872h3.616a5.068 5.068 0 015.063 5.062v3.747zM14.438 37.393h-1.294a4.339 4.339 0 00.783-2.49v-.856a4.37 4.37 0 00-4.364-4.364 4.37 4.37 0 00-4.365 4.364v.857c0 .924.29 1.782.783 2.489H4.688A4.693 4.693 0 000 42.08v4.982c0 .518.42.938.938.938h17.25c.517 0 .937-.42.937-.938V42.08a4.693 4.693 0 00-4.688-4.687zm-7.365-3.346a2.492 2.492 0 012.49-2.49 2.492 2.492 0 012.489 2.49v.857a2.492 2.492 0 01-2.49 2.489 2.492 2.492 0 01-2.489-2.49v-.856zM17.25 46.125H1.875V42.08a2.816 2.816 0 012.813-2.812h3.937v1.888a.938.938 0 001.875 0v-1.888h3.938a2.816 2.816 0 012.812 2.812v4.045zm26.063-8.732h-1.294a4.339 4.339 0 00.783-2.49v-.856a4.37 4.37 0 00-4.364-4.364 4.37 4.37 0 00-4.365 4.364v.857c0 .924.29 1.782.783 2.489h-1.294a4.693 4.693 0 00-4.687 4.687v4.982c0 .518.42.938.938.938h17.25c.517 0 .937-.42.937-.938V42.08a4.693 4.693 0 00-4.688-4.687zm-7.365-3.346a2.492 2.492 0 012.49-2.49 2.492 2.492 0 012.489 2.49v.857a2.492 2.492 0 01-2.49 2.489 2.492 2.492 0 01-2.489-2.49v-.856zm10.177 12.078H30.75V42.08a2.816 2.816 0 012.813-2.812H37.5v1.888a.938.938 0 001.875 0v-1.888h3.938a2.816 2.816 0 012.812 2.812v4.045zm-16.277-9.569l-4.91-4.91v-3.943a.938.938 0 00-1.875 0v3.943l-4.91 4.91a.938.938 0 001.326 1.326l4.522-4.522 4.521 4.522a.934.934 0 001.326 0 .938.938 0 000-1.326z"/><path d="M24.663 19.072a.944.944 0 00-.663-.275c-.247 0-.488.1-.663.275a.944.944 0 00-.274.662c0 .247.1.489.274.663a.945.945 0 00.663.275c.247 0 .488-.1.663-.275a.945.945 0 00.274-.663c0-.246-.1-.488-.274-.662z"/></g><defs><clipPath id="clip0_347_500"><path fill="#fff" d="M0 0h48v48H0z"/></clipPath></defs></svg>