<svg width="20" height="20" fill="none" xmlns="http://www.w3.org/2000/svg"><path d="M18.316 6.567c-.039-.886-.182-1.494-.387-2.022a4.066 4.066 0 00-.964-1.478 4.102 4.102 0 00-1.475-.96c-.53-.206-1.136-.349-2.021-.388-.893-.042-1.176-.052-3.439-.052s-2.546.01-3.435.049c-.885.039-1.494.182-2.021.387a4.067 4.067 0 00-1.479.964 4.103 4.103 0 00-.96 1.475c-.205.53-.348 1.136-.388 2.022-.042.892-.052 1.175-.052 3.438s.01 2.546.05 3.435c.038.885.182 1.494.387 2.022.211.56.54 1.061.963 1.478.417.423.922.752 1.475.96.531.206 1.136.349 2.022.388.889.039 1.172.049 3.435.049s2.546-.01 3.435-.05c.886-.038 1.494-.181 2.022-.387a4.263 4.263 0 002.438-2.438c.206-.53.349-1.137.388-2.022.039-.889.049-1.172.049-3.435s-.004-2.546-.043-3.435zm-1.5 6.805c-.036.814-.173 1.253-.287 1.546a2.765 2.765 0 01-1.582 1.583c-.293.114-.736.25-1.547.286-.879.04-1.143.049-3.366.049-2.224 0-2.491-.01-3.367-.049-.814-.036-1.254-.172-1.547-.286a2.566 2.566 0 01-.957-.622 2.592 2.592 0 01-.622-.957c-.114-.293-.25-.736-.286-1.547-.04-.879-.049-1.143-.049-3.367 0-2.223.01-2.49.049-3.366.036-.814.172-1.254.286-1.547.134-.361.346-.69.626-.957.27-.277.595-.488.957-.622.293-.114.736-.25 1.546-.286.88-.04 1.143-.049 3.367-.049 2.227 0 2.49.01 3.366.049.814.036 1.254.172 1.547.286.361.134.69.345.957.622.277.27.488.596.622.957.114.293.25.736.287 1.547.039.879.048 1.143.048 3.366 0 2.224-.01 2.485-.049 3.364z" fill="#fff"/><path d="M10.03 5.72a4.283 4.283 0 000 8.563 4.282 4.282 0 000-8.562zm0 7.06a2.778 2.778 0 11.001-5.556 2.778 2.778 0 010 5.555zm5.45-7.229a1 1 0 11-1.999 0 1 1 0 012 0z" fill="#fff"/></svg>