<svg width="293" height="701" fill="none" xmlns="http://www.w3.org/2000/svg"><g opacity=".4" stroke="#00F0B5"><path d="M-363.158 305.049c-19.76-42.264-25.57-77.452-17.56-105.616 8.002-28.138 29.834-49.383 65.636-63.695 71.776-28.694 138.231-50.343 199.365-64.95C-54.697 56.208 11.535 66.49 83 101.697c71.385 35.168 117.661 97.725 138.806 187.75 10.574 45.015 11.275 84.662 2.137 118.956-9.137 34.289-28.116 63.256-56.955 86.911-57.826 47.43-108.93 86.55-153.316 117.364-44.287 30.746-97.68 43.292-160.212 37.607-31.22-2.839-57.256-13.688-78.135-32.535-20.884-18.851-36.639-45.73-47.243-80.676-21.252-70.043-51.667-147.385-91.24-232.025z"/><path d="M-305.693 313.4c-16.04-34.321-20.752-62.878-14.266-85.721 6.479-22.816 24.165-40.048 53.199-51.659 58.242-23.29 112.165-40.859 161.77-52.711 49.492-11.824 103.222-3.467 161.212 25.136C114.13 177.008 151.684 227.8 168.856 300.9c8.587 36.553 9.162 68.739 1.757 96.573-7.403 27.827-22.789 51.335-46.174 70.53C77.521 506.514 36.056 538.277.044 563.294c-35.915 24.949-79.22 35.125-129.952 30.498-25.319-2.31-46.43-11.12-63.362-26.416-16.936-15.301-29.72-37.119-38.328-65.493-17.263-56.899-41.962-119.727-74.095-188.483z"/><path d="M-270.406 318.591c-13.75-29.421-17.783-53.887-12.228-73.449 5.547-19.535 20.691-34.297 45.572-44.247 49.935-19.968 96.166-35.032 138.694-45.192C-55.952 145.569-9.9 152.73 39.81 177.249c49.631 24.479 81.817 68.01 96.537 130.671 7.361 31.333 7.852 58.917 1.507 82.769-6.343 23.844-19.526 43.987-39.567 60.437-40.228 33.019-75.779 60.252-106.654 81.7-30.778 21.381-67.891 30.104-111.376 26.137-21.695-1.979-39.782-9.527-54.286-22.631-14.51-13.108-25.465-31.803-32.843-56.123-14.803-48.79-35.982-102.663-63.534-161.618z"/></g></svg>