<svg width="710" height="1367" fill="none" xmlns="http://www.w3.org/2000/svg"><g opacity=".4" stroke="#00F0B5"><path d="M389.48 1050.24c13.333 6.74 26.938 13.92 40.757 21.21 44.645 23.56 91.516 48.29 138.602 63.21 61.632 19.53 123.522 22.22 181.125-16.53 55.944-37.63 69.456-97.24 74.374-163.507 1.23-16.562 1.922-33.53 2.607-50.667l.049-1.214c.67-16.737 1.345-33.631 2.522-50.446 2.411-34.441 6.925-68.582 17.809-100.448 11.932-34.934 32.043-68.541 54.684-101.273 11.322-16.367 23.28-32.523 35.17-48.518l2.346-3.156c11.097-14.926 22.093-29.716 32.419-44.422 44.246-63.009 76.036-124.275 50.886-187.675-26.811-67.592-88.977-115.218-163.016-141.233-74.036-26.013-159.875-30.39-233.916-11.544-63.939 16.274-103.08 66.483-137.221 126.061-10.303 17.98-20.137 36.787-30.059 55.761-6.521 12.472-13.08 25.016-19.836 37.446-17.022 31.321-35.269 61.871-57.218 88.529-21.046 25.56-47.014 48.409-74.077 70.258-10.721 8.655-21.606 17.148-32.427 25.591-16.518 12.887-32.885 25.657-48.283 38.706-50.966 43.186-91.027 89.187-90.072 151.735.993 65.081 36.564 111.66 85.731 148.962 40.075 30.403 89.121 54.604 135.749 77.604 10.602 5.23 21.078 10.4 31.295 15.56z"/><path d="M446.217 972.188c10.501 5.309 21.215 10.962 32.096 16.704 35.15 18.548 72.041 38.008 109.104 49.758 48.509 15.37 97.201 17.48 142.518-13 44.003-29.604 54.639-76.493 58.511-128.659.968-13.038 1.513-26.395 2.053-39.888l.038-.958c.527-13.177 1.059-26.479 1.986-39.72 1.898-27.121 5.453-54.012 14.027-79.114 9.399-27.519 25.24-53.989 43.068-79.763 8.915-12.888 18.332-25.609 27.693-38.204l1.846-2.483c8.738-11.753 17.395-23.396 25.525-34.974 34.835-49.612 59.828-97.804 40.052-147.662-21.094-53.18-70.009-90.661-128.286-111.138-58.272-20.474-125.836-23.919-184.112-9.086-50.297 12.802-81.095 52.299-107.973 99.203-8.112 14.155-15.852 28.958-23.663 43.896-5.135 9.82-10.3 19.697-15.621 29.488-13.403 24.662-27.773 48.723-45.062 69.72-16.576 20.132-37.029 38.127-58.339 55.332-8.443 6.817-17.015 13.504-25.536 20.152-13.002 10.145-25.885 20.197-38.008 30.469-40.126 34.001-71.63 70.19-70.88 119.384.782 51.195 28.76 87.841 67.458 117.2 31.543 23.931 70.148 42.976 106.86 61.087 8.348 4.118 16.598 8.188 24.645 12.256z"/><path d="M487.21 915.793c8.456 4.275 17.081 8.826 25.841 13.448 28.288 14.926 57.969 30.586 87.79 40.036 39.028 12.368 78.184 14.06 114.623-10.452 35.376-23.796 43.934-61.493 47.05-103.473.779-10.492 1.217-21.241 1.652-32.101l.03-.767c.425-10.607.853-21.316 1.599-31.975 1.528-21.832 4.39-43.485 11.295-63.701 7.569-22.161 20.325-43.474 34.676-64.221 7.176-10.375 14.756-20.615 22.29-30.751l1.488-2.001c7.032-9.458 13.998-18.828 20.54-28.145 28.039-39.932 48.12-78.677 32.225-118.751-16.964-42.767-56.305-72.918-103.193-89.393-46.883-16.473-101.243-19.244-148.127-7.311-40.441 10.294-65.212 42.051-86.842 79.798-6.528 11.392-12.756 23.302-19.042 35.323-4.132 7.904-8.29 15.855-12.574 23.738-10.789 19.851-22.358 39.223-36.279 56.129-13.348 16.212-29.815 30.7-46.968 44.548-6.799 5.489-13.699 10.873-20.557 16.223-10.463 8.164-20.828 16.251-30.585 24.518-32.293 27.364-57.616 56.465-57.012 96.01.628 41.161 23.121 70.631 54.254 94.25 25.379 19.255 56.44 34.578 85.987 49.155 6.72 3.315 13.361 6.591 19.839 9.866z"/></g></svg>